<svg width="241" height="48" viewBox="0 0 241 48" fill="none" xmlns="http://www.w3.org/2000/svg">
<path d="M0.904 7.352C1.83733 7.38933 3.088 7.42667 4.656 7.464C6.26133 7.50133 7.848 7.52 9.416 7.52C11.208 7.52 12.944 7.50133 14.624 7.464C16.304 7.42667 17.4987 7.408 18.208 7.408C23.3973 7.408 27.28 8.43467 29.856 10.488C32.432 12.5413 33.72 15.192 33.72 18.44C33.72 19.784 33.4587 21.2027 32.936 22.696C32.4133 24.152 31.5173 25.5147 30.248 26.784C29.016 28.016 27.3173 29.024 25.152 29.808C22.9867 30.592 20.2613 30.984 16.976 30.984H11.264V29.864H16.416C18.6187 29.864 20.28 29.36 21.4 28.352C22.5573 27.344 23.3413 26.0187 23.752 24.376C24.2 22.7333 24.424 20.96 24.424 19.056C24.424 15.5093 23.9013 12.8587 22.856 11.104C21.8107 9.34933 20.0187 8.472 17.48 8.472C16.024 8.472 15.072 8.78933 14.624 9.424C14.2133 10.0587 14.008 11.3467 14.008 13.288V40.728C14.008 42.184 14.1573 43.2667 14.456 43.976C14.7547 44.6853 15.3333 45.152 16.192 45.376C17.0507 45.6 18.32 45.7307 20 45.768V47C18.8427 46.9627 17.3493 46.9253 15.52 46.888C13.6907 46.8507 11.768 46.832 9.752 46.832C8.14667 46.832 6.57867 46.8507 5.048 46.888C3.51733 46.9253 2.136 46.9627 0.904 47V45.88C2.09867 45.8053 2.99467 45.656 3.592 45.432C4.18933 45.208 4.58133 44.76 4.768 44.088C4.992 43.416 5.104 42.408 5.104 41.064V13.288C5.104 11.9067 4.992 10.8987 4.768 10.264C4.58133 9.592 4.17067 9.144 3.536 8.92C2.93867 8.65867 2.06133 8.50933 0.904 8.472V7.352ZM235.591 39.16C237.047 39.16 238.205 39.552 239.063 40.336C239.922 41.0827 240.351 42.128 240.351 43.472C240.351 44.816 239.922 45.88 239.063 46.664C238.205 47.4107 237.047 47.784 235.591 47.784C234.135 47.784 232.978 47.4107 232.119 46.664C231.261 45.88 230.831 44.816 230.831 43.472C230.831 42.128 231.261 41.0827 232.119 40.336C232.978 39.552 234.135 39.16 235.591 39.16Z" fill="#70DA1C"/>
<path d="M49.792 17.264C52.5173 17.264 54.9067 17.768 56.96 18.776C59.0133 19.784 60.6187 21.408 61.776 23.648C62.9333 25.888 63.512 28.856 63.512 32.552C63.512 36.248 62.9333 39.216 61.776 41.456C60.6187 43.6587 59.0133 45.264 56.96 46.272C54.9067 47.28 52.5173 47.784 49.792 47.784C47.1413 47.784 44.7707 47.28 42.68 46.272C40.6267 45.264 39.0027 43.6587 37.808 41.456C36.6507 39.216 36.072 36.248 36.072 32.552C36.072 28.856 36.6507 25.888 37.808 23.648C39.0027 21.408 40.6267 19.784 42.68 18.776C44.7707 17.768 47.1413 17.264 49.792 17.264ZM49.792 18.384C48.2987 18.384 47.048 19.504 46.04 21.744C45.032 23.9467 44.528 27.5493 44.528 32.552C44.528 37.5547 45.032 41.1573 46.04 43.36C47.048 45.5627 48.2987 46.664 49.792 46.664C51.3227 46.664 52.5733 45.5627 53.544 43.36C54.552 41.1573 55.056 37.5547 55.056 32.552C55.056 27.5493 54.552 23.9467 53.544 21.744C52.5733 19.504 51.3227 18.384 49.792 18.384ZM86.2721 17.264C87.4667 17.264 88.4374 17.5253 89.1841 18.048C89.9307 18.5333 90.4721 19.168 90.8081 19.952C91.1814 20.736 91.3681 21.5573 91.3681 22.416C91.3681 23.7973 90.9574 24.936 90.1361 25.832C89.3521 26.6907 88.3067 27.12 87.0001 27.12C85.6934 27.12 84.6667 26.8027 83.9201 26.168C83.2107 25.496 82.8561 24.6187 82.8561 23.536C82.8561 22.4907 83.0801 21.632 83.5281 20.96C84.0134 20.2507 84.6107 19.6533 85.3201 19.168C84.7974 19.0187 84.2747 19.0373 83.7521 19.224C83.0427 19.336 82.3707 19.6347 81.7361 20.12C81.1014 20.568 80.5601 21.1467 80.1121 21.856C79.6641 22.528 79.3094 23.2747 79.0481 24.096C78.7867 24.88 78.6561 25.6453 78.6561 26.392V41.232C78.6561 43.024 79.0854 44.2373 79.9441 44.872C80.8401 45.5067 82.1654 45.824 83.9201 45.824V47C83.0614 46.9627 81.8107 46.9253 80.1681 46.888C78.5254 46.8133 76.8081 46.776 75.0161 46.776C73.5227 46.776 72.0107 46.8133 70.4801 46.888C68.9494 46.9253 67.7921 46.9627 67.0081 47V45.824C68.3147 45.824 69.2294 45.544 69.7521 44.984C70.3121 44.424 70.5921 43.36 70.5921 41.792V24.152C70.5921 22.472 70.3307 21.24 69.8081 20.456C69.3227 19.6347 68.3894 19.224 67.0081 19.224V18.048C68.2027 18.16 69.3601 18.216 70.4801 18.216C72.0481 18.216 73.5041 18.16 74.8481 18.048C76.2294 17.8987 77.4987 17.6933 78.6561 17.432V22.64C79.1041 21.632 79.7014 20.7173 80.4481 19.896C81.1947 19.0747 82.0534 18.44 83.0241 17.992C83.9947 17.5067 85.0774 17.264 86.2721 17.264ZM104.517 8.864V18.048H111.125V19.168H104.517V41.792C104.517 42.912 104.722 43.7147 105.133 44.2C105.543 44.648 106.159 44.872 106.981 44.872C107.653 44.872 108.325 44.6293 108.997 44.144C109.669 43.6213 110.266 42.744 110.789 41.512L111.741 42.016C111.143 43.696 110.229 45.0773 108.997 46.16C107.802 47.2427 106.159 47.784 104.069 47.784C102.837 47.784 101.754 47.616 100.821 47.28C99.8874 46.9813 99.1034 46.5147 98.4687 45.88C97.6474 45.0587 97.106 44.0507 96.8447 42.856C96.5834 41.624 96.4527 40.0373 96.4527 38.096V19.168H91.7487V18.048H96.4527V10.656C98.0207 10.656 99.458 10.5253 100.765 10.264C102.109 9.96533 103.359 9.49866 104.517 8.864ZM127.62 3.208C128.927 3.208 130.066 3.376 131.036 3.712C132.007 4.048 132.866 4.496 133.612 5.056C134.135 5.46667 134.583 6.04533 134.956 6.792C135.33 7.50133 135.516 8.32266 135.516 9.256C135.516 10.264 135.143 11.16 134.396 11.944C133.687 12.728 132.735 13.12 131.54 13.12C130.308 13.12 129.282 12.7653 128.46 12.056C127.676 11.3467 127.284 10.376 127.284 9.144C127.284 8.17333 127.564 7.31466 128.124 6.568C128.684 5.82133 129.506 5.29866 130.588 5C130.476 4.776 130.252 4.58933 129.916 4.44C129.58 4.29066 129.132 4.216 128.572 4.216C127.826 4.216 127.21 4.34666 126.724 4.608C126.239 4.86933 125.847 5.224 125.548 5.672C125.138 6.232 124.858 7.05333 124.708 8.136C124.559 9.18133 124.484 10.8053 124.484 13.008V18.104H130.476V19.224H124.484V41.232C124.484 43.0613 124.951 44.2933 125.884 44.928C126.818 45.5253 128.106 45.824 129.748 45.824V47C128.778 46.9627 127.415 46.9253 125.66 46.888C123.906 46.8133 122.058 46.776 120.116 46.776C118.698 46.776 117.298 46.8133 115.916 46.888C114.572 46.9253 113.546 46.9627 112.836 47V45.824C114.143 45.824 115.058 45.544 115.58 44.984C116.14 44.424 116.42 43.36 116.42 41.792V19.224H112.612V18.104H116.42C116.42 15.9013 116.532 14.072 116.756 12.616C116.98 11.1227 117.354 9.85333 117.876 8.808C118.399 7.76266 119.09 6.82933 119.948 6.008C120.77 5.224 121.852 4.57067 123.196 4.048C124.578 3.488 126.052 3.208 127.62 3.208ZM145.987 17.264C148.713 17.264 151.102 17.768 153.155 18.776C155.209 19.784 156.814 21.408 157.971 23.648C159.129 25.888 159.707 28.856 159.707 32.552C159.707 36.248 159.129 39.216 157.971 41.456C156.814 43.6587 155.209 45.264 153.155 46.272C151.102 47.28 148.713 47.784 145.987 47.784C143.337 47.784 140.966 47.28 138.875 46.272C136.822 45.264 135.198 43.6587 134.003 41.456C132.846 39.216 132.267 36.248 132.267 32.552C132.267 28.856 132.846 25.888 134.003 23.648C135.198 21.408 136.822 19.784 138.875 18.776C140.966 17.768 143.337 17.264 145.987 17.264ZM145.987 18.384C144.494 18.384 143.243 19.504 142.235 21.744C141.227 23.9467 140.723 27.5493 140.723 32.552C140.723 37.5547 141.227 41.1573 142.235 43.36C143.243 45.5627 144.494 46.664 145.987 46.664C147.518 46.664 148.769 45.5627 149.739 43.36C150.747 41.1573 151.251 37.5547 151.251 32.552C151.251 27.5493 150.747 23.9467 149.739 21.744C148.769 19.504 147.518 18.384 145.987 18.384ZM152.203 1.248C152.838 1.73333 153.174 2.40533 153.211 3.264C153.249 4.12267 152.969 4.92533 152.371 5.672C151.774 6.41866 151.046 7.09066 150.187 7.688C149.329 8.28533 148.302 9.01333 147.107 9.872C145.95 10.7307 144.55 11.9253 142.907 13.456L142.291 12.952C143.411 10.936 144.233 9.256 144.755 7.912C145.278 6.53067 145.726 5.35467 146.099 4.384C146.473 3.41333 146.977 2.57333 147.611 1.864C148.171 1.11733 148.899 0.687998 149.795 0.575997C150.729 0.426663 151.531 0.650664 152.203 1.248ZM174.081 3.152V41.792C174.081 43.36 174.342 44.424 174.865 44.984C175.425 45.544 176.358 45.824 177.665 45.824V47C176.955 46.9627 175.891 46.9253 174.473 46.888C173.054 46.8133 171.617 46.776 170.161 46.776C168.705 46.776 167.23 46.8133 165.737 46.888C164.281 46.9253 163.179 46.9627 162.433 47V45.824C163.739 45.824 164.654 45.544 165.177 44.984C165.737 44.424 166.017 43.36 166.017 41.792V9.872C166.017 8.192 165.755 6.96 165.233 6.176C164.747 5.35466 163.814 4.944 162.433 4.944V3.768C163.627 3.88 164.785 3.936 165.905 3.936C167.435 3.936 168.891 3.88 170.273 3.768C171.654 3.61867 172.923 3.41333 174.081 3.152ZM187.327 3.6C188.895 3.6 190.127 3.992 191.023 4.776C191.956 5.52267 192.423 6.568 192.423 7.912C192.423 9.256 191.956 10.32 191.023 11.104C190.127 11.8507 188.895 12.224 187.327 12.224C185.759 12.224 184.508 11.8507 183.575 11.104C182.679 10.32 182.231 9.256 182.231 7.912C182.231 6.568 182.679 5.52267 183.575 4.776C184.508 3.992 185.759 3.6 187.327 3.6ZM191.695 17.432V41.792C191.695 43.36 191.956 44.424 192.479 44.984C193.039 45.544 193.972 45.824 195.279 45.824V47C194.607 46.9627 193.562 46.9253 192.143 46.888C190.724 46.8133 189.287 46.776 187.831 46.776C186.375 46.776 184.9 46.8133 183.407 46.888C181.914 46.9253 180.794 46.9627 180.047 47V45.824C181.354 45.824 182.268 45.544 182.791 44.984C183.351 44.424 183.631 43.36 183.631 41.792V24.152C183.631 22.472 183.37 21.24 182.847 20.456C182.362 19.6347 181.428 19.224 180.047 19.224V18.048C181.242 18.16 182.399 18.216 183.519 18.216C185.087 18.216 186.543 18.16 187.887 18.048C189.268 17.8987 190.538 17.6933 191.695 17.432ZM212.159 17.264C214.885 17.264 217.274 17.768 219.327 18.776C221.381 19.784 222.986 21.408 224.143 23.648C225.301 25.888 225.879 28.856 225.879 32.552C225.879 36.248 225.301 39.216 224.143 41.456C222.986 43.6587 221.381 45.264 219.327 46.272C217.274 47.28 214.885 47.784 212.159 47.784C209.509 47.784 207.138 47.28 205.047 46.272C202.994 45.264 201.37 43.6587 200.175 41.456C199.018 39.216 198.439 36.248 198.439 32.552C198.439 28.856 199.018 25.888 200.175 23.648C201.37 21.408 202.994 19.784 205.047 18.776C207.138 17.768 209.509 17.264 212.159 17.264ZM212.159 18.384C210.666 18.384 209.415 19.504 208.407 21.744C207.399 23.9467 206.895 27.5493 206.895 32.552C206.895 37.5547 207.399 41.1573 208.407 43.36C209.415 45.5627 210.666 46.664 212.159 46.664C213.69 46.664 214.941 45.5627 215.911 43.36C216.919 41.1573 217.423 37.5547 217.423 32.552C217.423 27.5493 216.919 23.9467 215.911 21.744C214.941 19.504 213.69 18.384 212.159 18.384Z" fill="#F5F5F5"/>
</svg>
